<?xml version="1.0" encoding="UTF-8"?>
<svg version="1.1" viewBox="0 0 1280 1024"  width="180" height="32" xmlns="http://www.w3.org/2000/svg">
<path transform="translate(273,439)" d="m0 0h9l17 3 16 7 13 10 2 2 15 2 11 4 10 6 7 7 7 11 3 9 1 5v15l-4 13-5 9-8 9-11 7-11 4-15 2-11 9-10 6-15 5-5 1h-23l-15-4-14-7-12-10-19-3-14-7-10-9-6-9-4-11-1-5v-15l3-11 5-10 10-11 10-6 11-4 15-2 9-8 14-8 12-4zm-3 12-13 3-14 7-12 11-7 9-6 12-5 1-3-2 1-8 5-10-9 2-9 5-9 9-5 10-1 4v17l4 10 4 6 7 7 12 6 5 1h14l10 10 11 7 15 5 7 1h11l14-3 16-8 12-11 7-10 5-10 1-1h5l2 2-1 7-4 8v2l7-1 10-5 8-8 6-12 1-3v-17l-4-10-4-6-8-8-11-5-4-1-16-1-9-9-11-7-14-5-6-1z" fill="#fff"/>
<path transform="translate(269,474)" d="m0 0h17l11 4 9 7 6 9 4 10v17l-5 12-7 8-8 6-11 4h-15l-11-4-6-4-8-8-5-11-1-3v-17l4-11 7-9 10-7zm3 23-7 5-3 6v9l4 7 7 4h9l8-5 3-6v-9l-4-7-7-4z" fill="#fff"/>
<path transform="translate(269,457)" d="m0 0h17l11 3 12 6 10 9 7 9 5 12 2 9v15l-4 15-6 10-9 10-10 7-14 5-5 1h-15l-15-4-10-6-10-9-7-10-5-13-1-5v-17l3-11 6-12 9-10 9-7 11-5zm1 11-10 3-10 6-5 4-7 10-4 10-1 4v15l4 12 6 9 8 8 12 6 8 2h13l13-4 9-6 8-8 6-12 2-8v-13l-4-13-6-9-5-5-8-6-10-4-4-1z" fill="#fff"/>
<path transform="translate(660,448)" d="m0 0h13l24 56 19 44v3h-11l-7-14-8-19-48-1-3 9-10 24-1 1h-12l5-13 23-53 15-35zm6 13-18 42v3h37l-3-9-15-36z" fill="#fff"/>
<path transform="translate(503,473)" d="m0 0h18l12 5 7 7 1-11h11v77h-11l-1-11-5 5-5 4-13 4h-9l-11-3-11-6-9-9-5-12-1-5v-11l4-13 6-8 9-8 9-4zm6 10-10 3-9 6-6 9-2 7v9l3 9 6 8 9 6 7 2h10l9-3 10-9 4-7 1-4v-13l-4-10-8-8-9-4z" fill="#fff"/>
<path transform="translate(399,448)" d="m0 0h11l1 68 11-14 16-21 5-7h14l-2 5-13 16-12 16v3l11 13 18 22v2h-14l-14-17-9-11h-2l-9 12-1 16h-11z" fill="#fff"/>
<path transform="translate(732,448)" d="m0 0h12v102l-1 1h-10l-1-1z" fill="#fff"/>
<path transform="translate(599,473)" d="m0 0h8v11l-10 3-7 6-3 8-1 50h-11v-77h10l2 7 7-6z" fill="#fff"/>
<path transform="translate(275,498)" d="m0 0 8 1 5 3 3 5 1 7-3 7-6 5-6 1-7-2-6-7-1-7 3-7 4-4zm-1 5-5 4-1 2v7l4 5 2 1h7l5-4 1-2v-7l-4-5-2-1z" fill="#fff"/>
<path transform="translate(275,505)" d="m0 0h4l-1 5-4 2-4-1 2-4z" fill="#fff"/>

</svg>
