<?xml version="1.0" encoding="UTF-8"?>
<svg version="1.1" xmlns="http://www.w3.org/2000/svg" width="21" height="13.6535">
<path d="M0 0 C5.76369863 4.56838613 5.76369863 4.56838613 8.0625 6.8671875 C10.33127104 7.11594311 12.60269735 7.34057996 14.875 7.5546875 C25.15937124 8.74928703 35.12083836 12.93629644 42.0625 20.8671875 C50.36770301 31.84253928 53.3909477 42.11999279 52.0625 55.8671875 C49.54600966 68.62024872 43.43734123 77.18881847 33.0625 84.8671875 C26.97783028 88.62844656 21.53911768 90.04764353 14.4375 90.6796875 C7.77755796 91.39061787 4.9951378 92.98959257 0.41015625 97.703125 C-9.17457586 106.53830235 -23.27587998 109.71811382 -35.9375 110.2421875 C-49.97165388 109.66130365 -64.355257 105.85535788 -74.375 95.5546875 C-79.10232963 90.96742689 -83.6646075 91.02185354 -90.01953125 90.4609375 C-100.81527325 88.82489285 -110.34259882 82.46862245 -116.9375 73.8671875 C-123.71033782 62.97392865 -125.79142192 51.2145064 -123.28515625 38.578125 C-119.63765752 26.46154122 -112.5908169 18.13514187 -101.890625 11.62109375 C-97.09955993 9.16252089 -92.72181037 8.56340286 -87.375 8.0546875 C-81.14533165 7.35353957 -78.12151111 6.19960006 -73.80859375 1.73828125 C-54.92689415 -17.14341835 -20.22513146 -14.68473641 0 0 Z M-74.85546875 16.25390625 C-78.3564234 20.64816265 -83.9375 28.05984588 -83.9375 33.8671875 C-86.5775 33.8671875 -89.2175 33.8671875 -91.9375 33.8671875 C-91.46410771 28.37583696 -90.52207899 24.80138376 -87.9375 19.8671875 C-88.2675 19.2071875 -88.5975 18.5471875 -88.9375 17.8671875 C-99.80310157 21.4519454 -106.08532039 26.63248981 -111.80859375 36.53515625 C-115.0609917 43.25377762 -114.95446087 51.48690425 -113.2890625 58.66015625 C-109.94767984 67.8703777 -103.68395496 74.54643875 -94.9375 78.8671875 C-90.34499875 80.72185147 -86.79310466 80.83249573 -81.9375 80.5546875 C-76.54179513 80.46108172 -76.54179513 80.46108172 -73.99609375 82.171875 C-72.88766488 83.37378583 -71.81041292 84.60500474 -70.76171875 85.859375 C-62.95067169 94.45654457 -50.1774467 99.18777965 -38.8125 100.0234375 C-24.64106685 100.56849262 -12.42827642 95.73563624 -1.6875 86.6796875 C4.84352522 80.53284023 9.338622 72.97209843 13.0625 64.8671875 C15.0425 64.8671875 17.0225 64.8671875 19.0625 64.8671875 C20.25206883 69.01945606 19.85210563 71.25444743 18.125 75.1796875 C17.74472656 76.06269531 17.36445313 76.94570313 16.97265625 77.85546875 C16.67230469 78.51933594 16.37195313 79.18320312 16.0625 79.8671875 C23.88803292 79.69706722 29.58732346 75.4514177 34.9296875 69.94140625 C40.78318592 62.67549651 42.69603536 55.10872204 42.40234375 45.8515625 C41.36366969 36.73033281 36.83949643 29.90574143 30.0625 23.8671875 C23.40296501 19.28533995 18.33542113 17.86599803 10.3125 17.8046875 C5.13197841 17.47287723 2.3787972 17.02368817 -1.1875 13.1796875 C-1.79207031 12.46039063 -2.39664063 11.74109375 -3.01953125 11 C-10.13021865 3.09279975 -21.89252556 -0.62603957 -32.25 -1.37109375 C-49.30039178 -1.71426901 -62.97447685 3.85914173 -74.85546875 16.25390625 Z " fill="#FFFFFF" transform="translate(376.9375,463.1328125)"/>
<path d="M0 0 C7.29030087 5.26318203 12.20491242 11.84969475 14.58203125 20.55859375 C15.6390766 32.26845981 14.25099126 41.35870903 6.66015625 50.48046875 C-0.15763904 57.29826404 -8.35515671 60.48134424 -17.91796875 60.5859375 C-27.34208539 60.01165539 -36.03809766 56.65457282 -42.41796875 49.55859375 C-49.2360705 40.49196909 -50.3369392 31.76072724 -49.41796875 20.55859375 C-47.47912636 11.88604724 -42.34649026 5.78871143 -35.60546875 0.24609375 C-24.23388489 -5.77415653 -11.31314549 -6.74402373 0 0 Z M-22.41796875 15.55859375 C-22.41796875 15.88859375 -22.41796875 16.21859375 -22.41796875 16.55859375 C-19.11796875 16.55859375 -15.81796875 16.55859375 -12.41796875 16.55859375 C-12.41796875 16.22859375 -12.41796875 15.89859375 -12.41796875 15.55859375 C-15.71796875 15.55859375 -19.01796875 15.55859375 -22.41796875 15.55859375 Z M-28.41796875 20.55859375 C-27.41796875 22.55859375 -27.41796875 22.55859375 -27.41796875 22.55859375 Z M-23.91796875 22.62109375 C-25.88398056 26.47120021 -25.63515366 28.45059467 -24.41796875 32.55859375 C-22.16379833 35.14671535 -20.81275896 35.50102018 -17.41796875 35.99609375 C-14.35400632 35.78759359 -14.35400632 35.78759359 -12.10546875 33.87109375 C-10.19118247 31.24781255 -9.497185 29.80645995 -9.41796875 26.55859375 C-11.169104 22.84598148 -11.169104 22.84598148 -14.41796875 20.55859375 C-18.61052638 20.09275401 -20.60129688 19.88483946 -23.91796875 22.62109375 Z M-7.41796875 20.55859375 C-6.41796875 22.55859375 -6.41796875 22.55859375 -6.41796875 22.55859375 Z M-29.41796875 22.55859375 C-28.41796875 24.55859375 -28.41796875 24.55859375 -28.41796875 24.55859375 Z M-6.41796875 22.55859375 C-5.41796875 24.55859375 -5.41796875 24.55859375 -5.41796875 24.55859375 Z M-30.41796875 25.55859375 C-30.41796875 27.20859375 -30.41796875 28.85859375 -30.41796875 30.55859375 C-30.08796875 30.55859375 -29.75796875 30.55859375 -29.41796875 30.55859375 C-29.41796875 28.90859375 -29.41796875 27.25859375 -29.41796875 25.55859375 C-29.74796875 25.55859375 -30.07796875 25.55859375 -30.41796875 25.55859375 Z M-5.41796875 25.55859375 C-5.41796875 27.20859375 -5.41796875 28.85859375 -5.41796875 30.55859375 C-5.08796875 30.55859375 -4.75796875 30.55859375 -4.41796875 30.55859375 C-4.41796875 28.90859375 -4.41796875 27.25859375 -4.41796875 25.55859375 C-4.74796875 25.55859375 -5.07796875 25.55859375 -5.41796875 25.55859375 Z M-29.41796875 30.55859375 C-28.41796875 33.55859375 -28.41796875 33.55859375 -28.41796875 33.55859375 Z M-6.41796875 30.55859375 C-5.41796875 33.55859375 -5.41796875 33.55859375 -5.41796875 33.55859375 Z M-21.41796875 39.55859375 C-21.41796875 39.88859375 -21.41796875 40.21859375 -21.41796875 40.55859375 C-18.77796875 40.55859375 -16.13796875 40.55859375 -13.41796875 40.55859375 C-13.41796875 40.22859375 -13.41796875 39.89859375 -13.41796875 39.55859375 C-16.05796875 39.55859375 -18.69796875 39.55859375 -21.41796875 39.55859375 Z " fill="#FFFFFF" transform="translate(358.41796875,484.44140625)"/>
<path d="M0 0 C8.82248797 8.25115215 14.50077516 18.86522132 15.30859375 30.953125 C15.6889071 44.96386877 12.13320145 57.64825305 2.34375 68.05078125 C-8.78337373 78.37404433 -20.66832873 81.56306423 -35.4921875 81.08203125 C-47.93607091 80.3372071 -57.78647634 74.34665394 -66.21875 65.42578125 C-75.63974912 54.23477623 -78.05956799 42.08267371 -76.90625 27.73828125 C-75.28385414 19.37741165 -72.28674296 12.33818499 -66.90625 5.73828125 C-66.35453125 5.05121094 -65.8028125 4.36414063 -65.234375 3.65625 C-47.97362376 -15.63300832 -19.56303909 -15.22446187 0 0 Z M-59.69140625 11.91015625 C-65.85493507 20.69356341 -68.92684828 29.9896613 -67.50390625 40.79296875 C-65.08289774 52.05280712 -59.17189866 59.9913015 -49.90625 66.73828125 C-40.76313538 71.8822124 -31.05332446 73.31675112 -20.84375 70.61328125 C-10.93750376 67.26469097 -2.67954348 60.47786324 2.4453125 51.32421875 C6.9815221 41.04431929 6.91616422 31.23586737 3.09375 20.73828125 C-1.18228058 11.01875121 -8.38152426 4.35547059 -18.15625 0.23828125 C-33.39352474 -4.58255144 -49.47451045 -0.5200277 -59.69140625 11.91015625 Z " fill="#FFFFFF" transform="translate(371.90625,477.26171875)"/>
<path d="M0 0 C0.78375 0.04125 1.5675 0.0825 2.375 0.125 C2.0625 2 2.0625 2 1.375 4.125 C-1.625 6.125 -1.625 6.125 -5.625 6.125 C-4.86443086 2.32215429 -4.27658992 0.20364714 0 0 Z " fill="#FFFFFF" transform="translate(340.625,505.875)"/>
</svg>
